<svg width="138" height="133" viewBox="0 0 138 133" fill="none" xmlns="http://www.w3.org/2000/svg">
<path d="M103.943 57.1245L107.846 46.5457L97.2668 50.4482L93.1001 43.2795L81.6207 57.0284L84.0103 34.4658L74.5842 36.5912L69.0366 26.3606L63.501 36.5912L54.0749 34.4658L56.4644 57.0284L44.973 43.2795L40.8063 50.4482L30.2395 46.5457L34.142 57.1245L26.9613 61.2912L55.78 85.3548H82.2931L111.124 61.2912L103.943 57.1245Z" fill="#272727"/>
<path d="M64.4483 92.271H73.6222C73.7903 92.271 73.9344 92.4031 73.9464 92.5712L75.2313 106.488C75.2433 106.68 75.0992 106.848 74.9071 106.848H63.1515C62.9593 106.848 62.8032 106.68 62.8272 106.488L64.1121 92.5712C64.1241 92.4031 64.2682 92.271 64.4363 92.271H64.4483Z" fill="#272727"/>
<path fill-rule="evenodd" clip-rule="evenodd" d="M54.1962 0H83.5966V0.0136312C88.0987 0.0136312 92.4917 1.43128 96.1343 4.07574L119.914 21.3465C123.556 23.991 126.271 27.7123 127.663 31.9925L136.749 59.9229C138.141 64.2031 138.141 68.8105 136.749 73.0907L127.663 101.021C126.271 105.288 123.556 109.023 119.914 111.667L96.1343 128.938C92.4917 131.582 88.0987 133 83.5966 133H54.1962C49.6941 133 45.3011 131.582 41.6584 128.938L17.879 111.667C14.2363 109.023 11.5214 105.301 10.1298 101.021L1.04368 73.0907C-0.347893 68.8105 -0.347893 64.2031 1.04368 59.9229L10.1298 31.9789C11.5214 27.7123 14.2363 23.9773 17.879 21.3329L41.6584 4.06211C45.3011 1.41765 49.6941 0 54.1962 0ZM55.9587 7.92022H81.8354V7.93223C85.798 7.93223 89.6645 9.18103 92.8705 11.5105L113.8 26.7244C117.006 29.0539 119.396 32.332 120.62 36.1024L128.618 60.7064C129.842 64.4768 129.842 68.5354 128.618 72.3059L120.62 96.9098C119.396 100.668 117.006 103.958 113.8 106.288L92.8705 121.502C89.6645 123.831 85.798 125.08 81.8354 125.08H55.9587C51.9961 125.08 48.1296 123.831 44.9235 121.502L23.994 106.288C20.7879 103.958 18.3984 100.68 17.1736 96.9098L9.1764 72.3059C7.9516 68.5354 7.9516 64.4768 9.1764 60.7064L17.1736 36.0904C18.3984 32.332 20.7879 29.0419 23.994 26.7124L44.9235 11.4985C48.1296 9.16903 51.9961 7.92022 55.9587 7.92022Z" fill="#272727"/>
</svg>
